PathFileType	4	(X/Y/Z)	/Users/itak/Documents/Research/Walk-IL/dataset/trc/00518_00183.trc
DataRate	CameraRate	NumFrames	NumMarkers	Units	OrigDataRate	OrigDataStartFrame	OrigNumFrames
100.000000	100.000000	4	53	mm	100.000000	379	506
Frame#	Time	RPSI			LPSI			L3			STRN			T10			C7			CLAV			RBAK			LBAK			LSHO			LUPA			LAEL			LAOL			LWTS			LWPS			LFRA			LIFD			LHPS			LHTS			RSHO			RUPA			RAEL			RAOL			RWTS			RWPS			RFRA			RIFD			RHTS			RHPS			RBHD			LFHD			RFHD			LBHD			LHIP			RHIP			RASI			LASI			LKNE			LTHI			LANK			LTIP			LTOE			LMT1			LMT5			LHEE			RKNE			RANK			RTIP			RTOE			RMT1			RMT5			RHEE			RTHI			
		X1	Y1	Z1	X2	Y2	Z2	X3	Y3	Z3	X4	Y4	Z4	X5	Y5	Z5	X6	Y6	Z6	X7	Y7	Z7	X8	Y8	Z8	X9	Y9	Z9	X10	Y10	Z10	X11	Y11	Z11	X12	Y12	Z12	X13	Y13	Z13	X14	Y14	Z14	X15	Y15	Z15	X16	Y16	Z16	X17	Y17	Z17	X18	Y18	Z18	X19	Y19	Z19	X20	Y20	Z20	X21	Y21	Z21	X22	Y22	Z22	X23	Y23	Z23	X24	Y24	Z24	X25	Y25	Z25	X26	Y26	Z26	X27	Y27	Z27	X28	Y28	Z28	X29	Y29	Z29	X30	Y30	Z30	X31	Y31	Z31	X32	Y32	Z32	X33	Y33	Z33	X34	Y34	Z34	X35	Y35	Z35	X36	Y36	Z36	X37	Y37	Z37	X38	Y38	Z38	X39	Y39	Z39	X40	Y40	Z40	X41	Y41	Z41	X42	Y42	Z42	X43	Y43	Z43	X44	Y44	Z44	X45	Y45	Z45	X46	Y46	Z46	X47	Y47	Z47	X48	Y48	Z48	X49	Y49	Z49	X50	Y50	Z50	X51	Y51	Z51	X52	Y52	Z52	X53	Y53	Z53	

380	3.79	1157.907836914062	953.94873046875	88.46329498291016	1281.245971679688	955.5469970703125	91.83150482177734	1225.2060546875	1031.545043945312	92.58083343505859	1231.89599609375	1185.921630859375	319.2220764160156	1218.658203125	1136.616943359375	86.99202728271484	1210.3525390625	1363.539184570312	141.5491027832031	1225.264770507812	1281.943115234375	288.3703002929688	1125.363647460938	1241.693359375	91.49394989013672	1297.835815429688	1312.577270507812	108.3520202636719	1374.551635742188	1362.418823242188	198.3052520751953	1441.714599609375	1240.721557617188	180.6520538330078	1491.600830078125	1037.28369140625	186.2344055175781	1413.58251953125	1016.796630859375	127.6908416748047	1499.711059570312	879.4996337890625	309.1264953613281	1519.386474609375	827.5648193359375	233.1263275146484	1506.818969726562	961.9378662109375	213.9325408935547	1527.93798828125	731.8040771484375	351.8876037597656	1535.258178710938	784.6797485351562	268.9926147460938	1537.019409179688	811.9388427734375	328.0753479003906	1066.785034179688	1350.823364257812	205.7197265625	1010.979370117188	1283.37890625	188.5541534423828	961.4877319335938	1019.446350097656	171.3644866943359	1000.621032714844	1003.710693359375	120.9217529296875	986.3893432617188	815.12158203125	267.3044128417969	939.5045776367188	791.815185546875	193.43017578125	952.4680786132812	964.4404296875	172.1657104492188	975.7025146484375	656.1500244140625	271.9248352050781	958.1141967773438	724.7855224609375	282.5055541992188	935.7737426757812	723.2330932617188	215.3382720947266	1110.958374023438	1498.569213867188	198.5462188720703	1260.212768554688	1585.994750976562	301.5151977539062	1135.530883789062	1565.346923828125	317.6881103515625	1266.7568359375	1519.251708984375	165.0729827880859	1412.0244140625	883.1890869140625	199.4491577148438	1030.413696289062	856.4338989257812	197.9347229003906	1099.91845703125	904.9611206054688	292.6357727050781	1342.072387695312	918.482421875	290.9409790039062	1363.137451171875	468.3473510742188	268.7649230957031	1390.891723632812	624.4630737304688	257.5536499023438	1362.870239257812	33.7257080078125	158.7101287841797	1369.994384765625	315.3077697753906	240.8614196777344	1303.301513671875	26.01152229309082	358.6705932617188	1272.141723632812	33.14541625976562	280.9037475585938	1375.171264648438	27.37195205688477	268.3864135742188	1301.008178710938	27.86467361450195	113.4050445556641	1104.377197265625	483.6733703613281	299.7503662109375	1116.96142578125	76.36599731445312	140.5651245117188	1114.831176757812	341.3321228027344	286.8037414550781	1158.916625976562	42.07036972045898	332.4827270507812	1197.080444335938	49.1889533996582	269.4800720214844	1102.268432617188	49.37297821044922	247.7083282470703	1164.380493164062	82.09839630126953	88.40392303466797	1044.028930664062	737.7897338867188	252.1486053466797	
381	3.8	1160.655883789062	953.8732299804688	89.96818542480469	1284.046020507812	955.5252685546875	93.79627227783203	1228.176513671875	1031.454345703125	93.97332000732422	1233.87060546875	1186.12744140625	320.4894714355469	1221.896118164062	1136.561401367188	88.13319396972656	1213.586059570312	1363.614135742188	142.5098724365234	1227.572509765625	1282.131469726562	289.5387573242188	1128.707885742188	1241.819091796875	92.03020477294922	1301.193115234375	1312.451782226562	109.8431396484375	1377.4482421875	1362.296875	200.1941528320312	1444.480102539062	1240.358764648438	183.4015502929688	1494.049682617188	1036.99560546875	190.5554809570312	1416.62548828125	1016.158020019531	131.3996429443359	1500.597412109375	881.0477905273438	315.4707946777344	1521.372802734375	828.0462036132812	240.525634765625	1508.901733398438	962.2039794921875	219.32373046875	1527.899658203125	733.8857421875	360.7391662597656	1536.585693359375	785.6062622070312	277.2273864746094	1537.494873046875	813.6809692382812	335.9544982910156	1069.605102539062	1351.05712890625	205.8970336914062	1013.857849121094	1283.638305664062	188.4119720458984	964.3106079101562	1019.829162597656	170.5067291259766	1003.761596679688	1004.145263671875	120.3967590332031	988.2354125976562	814.9645385742188	265.7390747070312	941.8858032226562	792.155517578125	191.385498046875	955.2161254882812	964.8110961914062	171.1075897216797	977.2316284179688	656.01220703125	269.4296875	959.7153930664062	724.5992431640625	280.26318359375	937.8506469726562	723.450927734375	212.9308166503906	1113.875122070312	1498.841186523438	199.368896484375	1262.727905273438	1585.814819335938	303.3363647460938	1137.977905273438	1565.174194335938	318.8784790039062	1269.850708007812	1519.574340820312	166.6835021972656	1414.413818359375	883.2340698242188	201.8868865966797	1032.907470703125	856.3954467773438	199.0066680908203	1102.034545898438	905.116943359375	293.9284057617188	1344.222045898438	918.6032104492188	293.1068115234375	1364.623413085938	468.182373046875	268.6771240234375	1392.689453125	624.3465576171875	258.8255920410156	1362.833251953125	33.67991638183594	158.6651763916016	1370.98828125	315.0965270996094	240.6841125488281	1303.273681640625	26.02380180358887	358.653076171875	1272.066040039062	33.08396530151367	280.7770690917969	1375.123657226562	27.35802459716797	268.3868713378906	1301.018676757812	27.90588569641113	113.317741394043	1107.306884765625	483.4051513671875	300.1228942871094	1120.675170898438	73.61199188232422	146.3775939941406	1118.172973632812	340.5392456054688	288.6256408691406	1164.187255859375	42.64397430419922	338.6044311523438	1201.7392578125	48.94657516479492	275.2854919433594	1106.734619140625	48.4575080871582	254.0974426269531	1167.704956054688	78.62325286865234	93.78992462158203	1046.301147460938	737.6007080078125	252.7879638671875	
382	3.81	1163.25439453125	953.8301391601562	91.581787109375	1286.701904296875	955.5618286132812	95.80629730224609	1230.943481445312	1031.333862304688	95.44100189208984	1235.795776367188	1186.412475585938	321.6965942382812	1224.896240234375	1136.436767578125	89.29419708251953	1216.610595703125	1363.646606445312	143.3690490722656	1229.81005859375	1282.38916015625	290.6065368652344	1131.816772460938	1241.891235351562	92.57979583740234	1304.314453125	1312.307861328125	111.1371078491211	1380.186645507812	1362.184448242188	201.7923889160156	1447.051513671875	1239.999755859375	185.8437652587891	1496.275512695312	1036.708129882812	194.677001953125	1419.399536132812	1015.508544921875	134.9783935546875	1501.271484375	882.4818115234375	321.5018615722656	1523.091674804688	828.4944458007812	247.5784301757812	1510.754760742188	962.43212890625	224.4682006835938	1527.441284179688	735.7884521484375	369.0509033203125	1537.592163085938	786.453369140625	285.0477905273438	1537.671508789062	815.2651977539062	343.4359130859375	1072.27783203125	1351.298583984375	206.0690002441406	1016.580627441406	1283.901489257812	188.3321533203125	967.0006103515625	1020.204406738281	169.8202972412109	1006.745910644531	1004.572875976562	120.0092926025391	990.0427856445312	814.7503051757812	264.23779296875	944.1942138671875	792.4708862304688	189.4310760498047	957.8495483398438	965.1759033203125	170.2139129638672	978.8078002929688	655.8359375	266.8804626464844	961.337158203125	724.3320922851562	278.0413208007812	939.9014282226562	723.6243286132812	210.5662994384766	1116.656494140625	1499.175537109375	200.0867309570312	1265.150756835938	1585.639770507812	305.0083312988281	1140.342163085938	1565.006225585938	319.9635009765625	1272.785034179688	1519.965576171875	168.1154479980469	1416.72314453125	883.3492431640625	204.2923126220703	1035.329345703125	856.3388671875	200.2322998046875	1104.120483398438	905.2423095703125	295.3582153320312	1346.328247070312	918.767333984375	295.2703247070312	1366.161743164062	468.0653381347656	268.4089965820312	1394.486938476562	624.2711181640625	259.9206848144531	1362.814575195312	33.62031173706055	158.6183166503906	1372.032958984375	314.9292297363281	240.3783264160156	1303.252563476562	26.0437068939209	358.6248474121094	1271.988525390625	33.00364303588867	280.5788269042969	1375.0888671875	27.33735466003418	268.386962890625	1301.031127929688	27.95186996459961	113.2287902832031	1110.0302734375	483.072021484375	300.3702087402344	1123.822875976562	71.14363098144531	151.5260314941406	1121.193359375	339.7809143066406	290.1417541503906	1168.823608398438	43.09407806396484	343.959228515625	1205.81396484375	48.66255950927734	280.3782958984375	1110.594116210938	47.6761474609375	259.7506103515625	1170.489501953125	75.45132446289062	98.52925872802734	1048.497436523438	737.3928833007812	253.5779113769531	
383	3.82	1165.714599609375	953.83251953125	93.30223083496094	1289.220336914062	955.664794921875	97.85401916503906	1233.518676757812	1031.201904296875	96.98366546630859	1237.675170898438	1186.780029296875	322.8601684570312	1227.670532226562	1136.262451171875	90.48128509521484	1219.433471679688	1363.64990234375	144.1358032226562	1231.974975585938	1282.720092773438	291.5902709960938	1134.70068359375	1241.922729492188	93.15292358398438	1307.213623046875	1312.165161132812	112.2543792724609	1382.774536132812	1362.093872070312	203.1341857910156	1449.438598632812	1239.660400390625	188.0030822753906	1498.284301757812	1036.435668945312	198.5857543945312	1421.906982421875	1014.87255859375	138.4109649658203	1501.752807617188	883.81494140625	327.2088928222656	1524.56494140625	828.9275512695312	254.2616729736328	1512.38671875	962.640380859375	229.3477478027344	1526.615356445312	737.5192260742188	376.7966613769531	1538.311889648438	787.2383422851562	292.4279479980469	1537.577758789062	816.7037353515625	350.4975280761719	1074.806396484375	1351.555908203125	206.2450561523438	1019.151428222656	1284.178955078125	188.3193054199219	969.56005859375	1020.582275390625	169.2981567382812	1009.583129882812	1005.003295898438	119.7571640014648	991.8095092773438	814.49609375	262.8108215332031	946.4262084960938	792.7708740234375	187.5771942138672	960.3684692382812	965.5453491210938	169.4814300537109	980.4345703125	655.6414184570312	264.296142578125	962.9766845703125	724.0011596679688	275.8529663085938	941.92578125	723.7669067382812	208.2588958740234	1119.305786132812	1499.575805664062	200.6953735351562	1267.484008789062	1585.492309570312	306.5127868652344	1142.6240234375	1564.8740234375	320.9287109375	1275.564086914062	1520.413452148438	169.3663940429688	1418.9560546875	883.525146484375	206.6659545898438	1037.681518554688	856.2943725585938	201.6163330078125	1106.180419921875	905.3575439453125	296.9231262207031	1348.395263671875	918.9778442382812	297.435302734375	1367.753051757812	467.9939270019531	267.9730834960938	1396.277221679688	624.2371215820312	260.8474426269531	1362.811645507812	33.54958724975586	158.5702514648438	1373.12451171875	314.8042297363281	239.9345245361328	1303.236938476562	26.0698184967041	358.5873107910156	1271.9072265625	32.89783096313477	280.3094177246094	1375.066284179688	27.31504249572754	268.383056640625	1301.04052734375	27.98963356018066	113.1454696655273	1112.52734375	482.6930847167969	300.4802551269531	1126.45849609375	68.93221282958984	156.0169372558594	1123.888305664062	339.0566101074219	291.3555603027344	1172.81640625	43.39789199829102	348.592041015625	1209.322631835938	48.32656097412109	284.8038024902344	1113.876220703125	47.00349044799805	264.6796264648438	1172.802612304688	72.56334686279297	102.6413650512695	1050.624145507812	737.2032470703125	254.5369720458984	
